<?xml version="1.0" standalone="no"?>
<!DOCTYPE svg PUBLIC "-//W3C//DTD SVG 20010904//EN"
 "http://www.w3.org/TR/2001/REC-SVG-20010904/DTD/svg10.dtd">
<svg version="1.0" xmlns="http://www.w3.org/2000/svg"
 width="1664.000000pt" height="1664.000000pt" viewBox="0 0 1664.000000 1664.000000"
 preserveAspectRatio="xMidYMid meet">
<metadata>
Created by potrace 1.11, written by Peter Selinger 2001-2013
</metadata>
<g transform="translate(0.000000,1664.000000) scale(0.100000,-0.100000)"
fill="#000000" stroke="none">
<path d="M5852 11529 c-37 -11 -44 -16 -151 -119 -43 -41 -114 -106 -157 -145
-42 -38 -82 -75 -88 -80 -6 -6 -40 -37 -76 -70 -36 -32 -107 -97 -159 -144
-125 -115 -135 -124 -231 -211 -45 -41 -97 -88 -115 -105 -17 -16 -68 -63
-113 -104 -45 -40 -94 -85 -110 -100 -16 -14 -68 -62 -116 -106 -49 -44 -98
-89 -110 -100 -95 -86 -214 -195 -241 -220 -18 -16 -72 -66 -121 -110 -48 -44
-99 -91 -114 -105 -15 -14 -67 -61 -115 -105 -48 -44 -104 -95 -124 -114 -20
-18 -69 -63 -110 -100 -165 -149 -301 -272 -331 -301 -14 -14 -43 -40 -65 -59
-42 -36 -80 -86 -105 -136 -8 -16 -27 -50 -41 -76 -14 -25 -37 -65 -51 -90
-14 -24 -66 -117 -116 -207 -51 -89 -92 -167 -92 -172 0 -6 -4 -10 -9 -10 -5
0 -11 -8 -15 -17 -3 -10 -18 -40 -34 -68 -70 -123 -87 -153 -115 -205 -16 -30
-44 -80 -62 -110 -18 -30 -49 -86 -70 -125 -21 -38 -88 -158 -148 -265 -147
-260 -143 -254 -194 -345 -24 -44 -52 -93 -62 -110 -25 -42 -66 -116 -114
-205 -22 -41 -44 -76 -49 -78 -4 -2 -8 -8 -8 -13 0 -10 -109 -208 -179 -327
-17 -29 -31 -55 -31 -57 0 -2 -30 -56 -68 -122 -37 -65 -73 -129 -80 -143 -7
-14 -28 -52 -48 -85 -19 -33 -39 -69 -44 -80 -6 -11 -20 -36 -31 -55 -12 -19
-54 -93 -94 -165 -40 -71 -83 -148 -95 -170 -48 -85 -164 -292 -182 -325 l-19
-35 -387 -1 c-338 0 -391 -2 -417 -16 -143 -78 -156 -258 -27 -352 l44 -31
8067 -1 c8044 -2 8066 -2 8109 18 46 22 93 75 109 123 25 74 -17 188 -82 223
-16 10 -33 21 -37 26 -3 5 -116 10 -252 11 -135 1 -247 3 -249 6 -2 2 -14 29
-26 59 -13 30 -34 80 -48 110 -14 30 -51 114 -83 185 -32 72 -72 160 -89 197
-17 37 -42 94 -56 128 -14 33 -41 92 -59 130 -19 39 -35 72 -35 73 0 4 -33 81
-54 127 -67 149 -80 177 -90 200 -6 14 -11 27 -12 30 -1 3 -11 26 -23 53 -12
26 -30 66 -41 90 -19 42 -48 106 -102 225 -16 35 -29 65 -29 67 0 2 -13 32
-29 67 -16 35 -80 176 -141 313 -62 138 -119 266 -128 285 -9 19 -16 37 -17
40 -1 5 -11 27 -65 145 -52 112 -90 197 -90 201 0 3 -27 63 -75 169 -13 28
-60 133 -105 235 -75 168 -106 238 -160 355 -10 22 -53 119 -95 215 -85 193
-91 203 -150 248 -22 17 -54 44 -71 59 -36 32 -113 98 -164 139 -19 16 -37 31
-40 34 -3 3 -34 30 -70 60 -36 30 -76 65 -90 76 -53 46 -188 161 -236 201 -27
23 -60 51 -74 62 -14 12 -45 38 -69 59 -25 20 -52 44 -61 52 -15 15 -116 99
-153 130 -10 8 -31 25 -45 38 -15 13 -47 40 -72 60 -25 20 -54 46 -66 57 -12
11 -30 27 -40 35 -103 83 -184 155 -184 163 0 6 -3 7 -6 4 -4 -4 -14 1 -23 11
-9 9 -72 64 -141 122 -69 57 -127 107 -130 110 -3 3 -61 52 -130 110 -69 57
-130 109 -136 115 -6 5 -35 30 -64 55 -139 116 -196 165 -211 179 -9 9 -31 27
-49 41 -18 14 -39 30 -45 37 -13 12 -79 69 -154 131 -25 20 -53 45 -64 55 -10
10 -37 27 -60 38 -41 18 -119 18 -2817 18 -1718 -1 -2788 -4 -2808 -10z m5514
-429 c39 -36 45 -42 85 -75 113 -93 156 -131 169 -145 8 -9 23 -21 32 -26 9
-5 34 -25 55 -44 21 -19 94 -82 163 -140 69 -57 127 -107 130 -110 3 -3 46
-39 95 -80 50 -41 92 -77 95 -80 3 -3 34 -30 70 -60 35 -30 76 -65 90 -77 14
-11 106 -90 205 -173 99 -84 203 -172 230 -195 61 -52 321 -273 395 -335 29
-25 58 -49 64 -55 6 -5 38 -32 71 -59 33 -28 67 -57 76 -65 8 -9 35 -32 59
-51 24 -19 48 -39 54 -45 6 -5 43 -36 81 -68 245 -206 262 -222 270 -265 3
-20 20 -93 37 -162 16 -69 32 -136 35 -150 2 -14 11 -54 19 -90 9 -36 18 -76
20 -90 3 -14 9 -38 14 -55 7 -26 46 -193 55 -243 2 -9 4 -17 5 -17 2 0 5 -14
13 -55 3 -14 14 -63 25 -110 28 -114 50 -212 56 -244 3 -14 7 -34 10 -44 3 -9
7 -28 10 -42 3 -14 12 -54 21 -90 9 -36 20 -83 25 -105 14 -64 47 -203 70
-300 23 -96 27 -115 35 -157 3 -14 12 -53 20 -85 8 -32 17 -69 19 -83 3 -14 5
-25 6 -25 1 0 3 -9 5 -20 2 -11 11 -51 20 -90 9 -38 18 -78 20 -88 2 -10 7
-28 11 -40 4 -12 8 -31 8 -42 1 -11 4 -24 8 -30 3 -5 9 -27 12 -47 5 -35 18
-92 78 -343 12 -49 23 -97 24 -105 2 -8 8 -35 14 -60 5 -25 13 -56 16 -70 3
-14 21 -92 41 -175 35 -149 39 -169 47 -212 3 -13 7 -26 9 -30 5 -8 15 -58 20
-98 2 -19 -12 -19 -1926 -20 -1061 0 -1932 2 -1937 5 -4 3 -24 37 -45 75 -21
39 -49 87 -62 107 -13 21 -23 40 -23 42 0 3 -15 31 -34 63 -18 32 -46 81 -61
108 -16 28 -39 68 -51 90 -13 22 -31 57 -41 78 -10 20 -21 37 -25 37 -5 0 -8
4 -8 9 0 5 -45 89 -100 186 -55 98 -100 179 -100 181 0 2 -18 33 -40 69 -22
36 -40 68 -40 71 0 3 -17 36 -39 72 -68 118 -261 462 -261 466 0 2 -27 50 -60
106 -33 56 -60 103 -60 105 0 2 -17 32 -37 67 -21 35 -38 65 -38 68 0 3 -8 16
-17 30 -8 14 -31 54 -50 90 -20 36 -53 97 -75 135 -73 127 -260 460 -267 475
-4 8 -20 38 -36 65 -16 28 -37 66 -47 85 -10 19 -21 37 -25 38 -5 2 -8 7 -8
11 0 4 -45 88 -101 187 -56 98 -115 204 -131 234 -17 30 -43 78 -58 105 -16
28 -51 90 -79 138 -28 49 -51 92 -51 96 0 19 -78 95 -112 111 -33 14 -110 79
-249 210 -20 19 -70 64 -109 100 -93 84 -108 97 -225 205 -54 50 -106 97 -116
105 -9 9 -44 40 -76 70 -33 30 -99 91 -148 135 -48 44 -118 107 -154 141 -36
34 -120 110 -186 170 -66 59 -129 117 -141 129 -11 11 -51 47 -88 80 -37 33
-84 76 -105 95 -20 19 -77 71 -126 115 -49 44 -103 94 -121 110 -26 25 -118
110 -225 206 -104 95 -129 119 -129 121 0 2 1100 3 2444 3 l2445 0 37 -35z
m-5420 -66 c16 -15 54 -50 84 -78 31 -28 95 -87 144 -131 48 -44 102 -93 120
-110 54 -50 218 -199 236 -215 15 -13 151 -137 230 -210 15 -14 67 -61 115
-105 108 -97 117 -106 229 -209 49 -44 97 -88 106 -96 14 -13 130 -118 230
-210 15 -14 69 -63 120 -110 51 -47 105 -96 120 -110 15 -14 67 -61 115 -105
49 -44 100 -91 114 -103 14 -13 64 -58 110 -100 46 -43 96 -88 111 -102 14
-14 68 -63 118 -108 50 -46 91 -87 90 -90 -1 -4 2 -29 6 -57 5 -27 10 -60 11
-72 2 -11 5 -29 9 -40 4 -16 14 -73 21 -128 1 -11 3 -20 4 -20 1 0 4 -16 6
-35 2 -19 6 -46 9 -60 2 -14 7 -41 10 -60 3 -19 12 -78 21 -130 26 -151 26
-153 31 -190 3 -19 7 -48 9 -65 2 -16 4 -30 5 -30 3 0 16 -74 26 -145 8 -53
13 -83 18 -106 2 -12 7 -39 10 -60 4 -22 11 -68 17 -104 6 -36 13 -74 14 -85
2 -11 6 -33 9 -50 3 -16 9 -52 12 -80 3 -27 8 -53 10 -57 2 -3 7 -30 10 -60 3
-29 7 -56 9 -59 2 -3 7 -28 11 -55 3 -27 8 -58 10 -69 3 -11 7 -36 9 -55 3
-19 8 -46 11 -60 3 -14 8 -41 10 -60 3 -19 7 -46 9 -60 3 -14 12 -68 21 -120
8 -52 17 -106 20 -120 2 -14 7 -41 10 -60 5 -36 22 -134 30 -180 2 -14 11 -68
19 -120 9 -52 18 -106 20 -120 6 -32 10 -54 29 -170 9 -52 25 -151 36 -220 12
-69 29 -175 39 -235 l17 -110 -450 1 c-248 1 -454 2 -457 3 -4 0 17 97 47 214
30 116 56 221 58 232 10 46 68 271 73 285 3 8 7 24 8 35 3 21 43 178 53 205 9
26 12 44 13 85 3 69 0 80 -31 127 -32 48 -90 84 -149 92 -51 7 -186 76 -276
141 -116 83 -184 143 -330 291 -159 160 -174 177 -336 373 -71 86 -135 163
-143 171 -7 8 -53 69 -102 135 -110 148 -99 133 -134 175 -16 19 -30 40 -30
47 0 6 -4 13 -8 15 -5 2 -28 32 -53 68 -24 36 -47 67 -50 70 -3 3 -34 48 -70
100 -35 52 -70 101 -76 108 -7 7 -13 17 -13 22 0 5 -6 15 -13 22 -15 16 -42
57 -102 153 -16 26 -40 60 -52 75 -13 15 -23 31 -23 35 0 4 -18 32 -40 64 -22
31 -40 62 -40 69 0 7 -4 12 -9 12 -5 0 -13 9 -16 20 -3 11 -12 26 -18 33 -7 7
-20 26 -30 42 -9 17 -51 86 -93 155 -88 145 -82 136 -131 220 -21 36 -47 82
-58 104 -60 118 -179 168 -283 119 -77 -36 -97 -72 -152 -273 -38 -141 -70
-250 -77 -270 -8 -19 -7 -16 -22 -70 -7 -25 -19 -65 -28 -90 -8 -25 -17 -54
-19 -65 -10 -41 -13 -50 -14 -52 -2 -2 -3 -6 -5 -10 -1 -5 -4 -15 -7 -23 -7
-17 -39 -120 -43 -135 -1 -5 -5 -17 -8 -25 -3 -8 -44 -134 -92 -280 -47 -146
-90 -274 -95 -285 -5 -11 -25 -65 -44 -120 -19 -55 -51 -145 -71 -200 -20 -55
-38 -104 -39 -110 -2 -5 -10 -26 -18 -45 -9 -19 -22 -54 -29 -77 -6 -24 -16
-43 -21 -43 -4 0 -7 -3 -6 -7 2 -11 -13 -66 -22 -78 -4 -5 -11 -21 -15 -35 -4
-14 -13 -38 -20 -55 -45 -105 -70 -171 -68 -177 2 -5 -2 -8 -7 -8 -6 0 -10 -7
-10 -15 0 -8 -13 -44 -30 -80 -16 -36 -30 -67 -30 -69 0 -2 -12 -30 -27 -62
-14 -33 -27 -63 -29 -69 -7 -35 -317 -663 -333 -675 -4 -3 -12 -16 -18 -30
-25 -50 -154 -264 -185 -305 -4 -5 -41 -55 -82 -110 -41 -55 -90 -116 -108
-135 l-33 -36 -410 2 c-225 1 -413 2 -416 3 -4 0 -3 20 3 44 5 23 11 56 13 72
5 37 13 93 19 120 2 11 7 40 11 65 4 25 9 54 12 65 2 11 6 36 8 55 3 19 7 46
10 60 11 57 15 77 20 120 3 25 8 52 10 60 2 8 7 33 10 55 3 23 7 52 10 65 3
13 7 42 10 65 3 22 13 78 22 125 8 47 17 96 18 110 2 14 8 53 14 88 7 34 14
77 16 95 3 18 7 43 10 57 3 14 8 43 11 65 4 32 35 222 79 480 1 11 8 47 14 80
6 33 12 74 15 90 11 74 19 122 23 140 2 11 5 34 8 50 2 17 15 100 30 185 14
85 28 170 31 189 5 32 8 44 18 101 3 14 8 43 11 65 3 22 15 94 26 160 11 66
22 134 25 150 2 17 6 41 9 55 3 14 7 41 10 60 11 65 14 85 34 205 l21 119 49
46 c27 25 89 81 137 125 49 44 103 94 121 111 18 17 67 62 110 100 42 38 91
83 109 99 17 17 66 61 108 99 42 38 89 81 104 95 15 14 70 64 122 111 51 47
110 100 129 119 20 18 69 63 109 99 41 37 88 80 106 97 18 16 68 62 110 100
43 39 102 93 132 120 48 45 181 167 224 205 15 13 131 119 230 210 15 14 70
63 121 110 51 47 120 110 154 140 33 30 80 73 104 95 25 22 65 59 90 83 24 23
45 42 46 42 1 0 15 -12 31 -26z m-294 -2632 c2 -9 5 -19 8 -22 3 -3 23 -45 44
-95 74 -170 317 -655 347 -691 6 -8 8 -14 5 -14 -4 0 1 -12 11 -27 11 -16 46
-75 78 -133 33 -58 68 -118 78 -135 9 -16 20 -38 23 -47 4 -10 10 -18 14 -18
4 0 10 -8 13 -17 4 -10 19 -38 34 -63 15 -25 50 -82 76 -125 67 -111 69 -115
100 -162 15 -23 27 -44 27 -48 0 -3 5 -11 11 -18 5 -7 50 -75 99 -152 49 -77
93 -145 98 -150 5 -6 11 -15 13 -21 2 -5 72 -110 154 -233 83 -122 155 -230
160 -239 6 -9 12 -19 15 -22 3 -3 41 -57 85 -120 43 -63 82 -116 87 -118 4 -2
8 -8 8 -13 0 -7 54 -87 98 -144 4 -5 41 -57 81 -115 41 -58 80 -108 85 -112 6
-4 9 -8 6 -9 -12 -4 -3240 -4 -3240 0 0 8 135 216 142 219 5 2 8 7 8 12 0 4
21 44 48 90 99 171 312 587 312 609 0 6 5 11 10 11 6 0 9 3 8 8 -1 4 5 23 14
42 110 246 148 332 148 336 0 2 11 27 24 56 13 29 49 118 80 198 32 80 61 154
66 165 10 20 53 136 55 145 1 3 9 22 18 44 9 21 17 41 17 45 0 4 14 42 31 86
17 44 32 85 33 90 2 6 6 17 9 25 3 8 16 44 28 80 12 36 27 71 32 78 5 6 7 12
4 12 -3 0 8 37 25 83 16 45 39 111 50 147 11 36 23 70 26 75 4 6 7 15 8 21 2
14 73 233 84 259 13 30 50 157 50 170 0 6 5 16 12 23 9 9 15 5 25 -18 7 -17
14 -38 15 -48z m3347 -647 c19 -33 71 -125 116 -205 45 -80 99 -176 120 -215
59 -109 60 -110 65 -115 6 -6 36 -61 72 -130 13 -25 25 -47 28 -50 3 -3 13
-21 24 -40 35 -66 176 -317 230 -410 15 -25 34 -61 44 -80 9 -19 20 -36 25
-38 4 -2 7 -7 7 -12 0 -4 16 -37 36 -72 20 -34 50 -88 66 -118 104 -188 160
-287 168 -300 6 -8 16 -26 22 -40 7 -14 18 -31 25 -38 7 -7 13 -19 13 -25 0
-7 9 -23 20 -37 11 -14 20 -32 20 -42 0 -9 4 -18 8 -20 5 -1 53 -82 107 -178
54 -96 107 -190 117 -209 10 -18 16 -36 13 -40 -10 -9 -988 -9 -1007 1 -10 5
-18 19 -17 31 0 12 -4 42 -10 67 -5 25 -12 65 -16 90 -6 47 -12 81 -19 115 -2
11 -7 40 -11 65 -4 25 -9 52 -10 60 -2 8 -8 51 -15 95 -7 44 -14 89 -16 100
-15 76 -23 127 -23 133 1 4 0 9 -1 12 -4 11 -10 47 -14 85 -2 22 -7 47 -10 55
-3 8 -7 33 -10 55 -3 22 -9 64 -15 93 -6 29 -10 56 -10 60 1 4 0 9 -1 12 -2 6
-6 30 -14 80 -2 19 -7 46 -10 60 -3 13 -8 42 -11 65 -3 22 -8 51 -11 65 -2 14
-6 39 -8 57 -3 18 -7 40 -10 50 -2 10 -7 41 -11 68 -3 28 -8 58 -11 67 -3 9
-7 32 -9 50 -2 18 -6 42 -8 53 -3 11 -8 40 -11 65 -3 25 -8 56 -11 70 -3 14
-7 39 -10 55 -2 17 -6 41 -9 55 -3 14 -12 70 -20 125 -9 55 -18 111 -21 125
-3 14 -7 39 -9 55 -3 17 -8 46 -11 65 -4 19 -8 46 -10 60 -2 14 -6 36 -9 50
-3 14 -8 48 -11 75 l-5 50 33 -60 c18 -33 48 -87 66 -120z m-6083 48 c-4 -27
-13 -84 -21 -128 -7 -44 -16 -96 -19 -115 -6 -40 -74 -445 -80 -475 -2 -11 -7
-40 -10 -65 -3 -25 -8 -56 -11 -70 -2 -13 -7 -40 -10 -60 -3 -20 -7 -45 -9
-55 -2 -11 -7 -40 -11 -65 -4 -25 -9 -52 -10 -61 -2 -9 -6 -32 -9 -50 -3 -19
-17 -104 -31 -189 -14 -85 -31 -184 -36 -220 -5 -36 -11 -72 -14 -80 -2 -8 -7
-33 -10 -55 -3 -23 -7 -50 -9 -60 -2 -11 -7 -40 -11 -65 -9 -63 -14 -92 -19
-115 -2 -11 -9 -54 -16 -95 -6 -41 -14 -86 -16 -100 -3 -14 -7 -41 -10 -60 -3
-19 -12 -73 -20 -120 -8 -47 -17 -101 -20 -120 -3 -19 -10 -37 -14 -40 -7 -4
-958 -5 -982 -1 -5 1 69 139 102 191 5 8 24 42 41 75 17 33 34 62 38 65 4 3
12 16 18 30 11 22 31 59 100 180 11 19 47 85 80 145 34 61 93 166 132 233 39
68 71 125 71 127 0 2 14 27 30 55 17 29 49 86 71 128 23 42 45 82 50 88 5 6
20 31 33 55 13 24 42 78 65 119 23 41 45 83 48 93 3 9 9 17 14 17 5 0 9 4 9 8
0 5 54 104 120 222 66 117 120 214 120 216 0 2 18 33 40 69 22 36 40 67 40 69
0 2 38 72 85 155 47 83 85 155 85 161 0 5 3 10 6 10 3 0 3 -21 0 -47z m3754
-450 c8 -10 31 -38 50 -63 46 -59 71 -89 93 -112 9 -10 17 -20 17 -23 0 -3 10
-16 23 -28 12 -12 47 -51 77 -87 152 -179 372 -397 524 -518 39 -31 73 -60 76
-63 13 -15 201 -133 243 -152 44 -20 47 -24 43 -52 -2 -16 -5 -30 -6 -30 -1 0
-4 -8 -14 -50 -2 -11 -21 -85 -41 -165 -20 -80 -38 -149 -39 -155 -12 -54 -19
-75 -24 -75 -4 0 -32 37 -62 81 -30 44 -60 86 -65 92 -11 13 -68 96 -183 267
-39 58 -75 110 -79 115 -5 6 -54 80 -111 165 -56 85 -106 162 -112 170 -53 80
-148 231 -159 253 -8 15 -18 27 -23 27 -4 0 -8 4 -8 10 0 5 -15 33 -34 62 -56
89 -166 269 -166 274 0 2 -16 27 -35 54 -54 76 -46 78 15 3z m8120 -453 c45
-102 90 -203 100 -225 10 -22 30 -67 45 -100 15 -33 38 -85 52 -115 13 -30 29
-66 35 -80 6 -14 14 -33 19 -42 5 -10 63 -138 128 -285 65 -148 135 -303 155
-346 20 -43 36 -80 36 -82 0 -2 13 -32 29 -67 16 -35 45 -98 64 -140 22 -49
31 -78 24 -79 -7 -1 -93 -2 -192 -3 l-180 -1 -18 70 c-9 38 -19 81 -22 95 -2
14 -15 72 -29 130 -14 58 -27 116 -29 130 -3 14 -12 52 -20 85 -9 33 -18 71
-21 85 -2 14 -12 54 -21 90 -17 72 -22 90 -31 135 -3 17 -16 75 -29 130 -13
55 -26 111 -29 125 -2 14 -12 54 -21 90 -9 36 -18 76 -21 90 -3 14 -12 51 -20
83 -8 32 -19 79 -25 105 -5 26 -11 56 -14 67 -9 39 -37 160 -44 196 -4 19 -11
42 -16 50 -6 10 -5 11 3 4 6 -5 47 -93 92 -195z"/>
<path d="M10130 9153 c-185 -51 -211 -298 -40 -377 l46 -21 1640 0 c1490 1
1642 2 1669 17 125 67 155 221 62 320 -65 70 62 65 -1737 65 -894 0 -1632 -2
-1640 -4z"/>
<path d="M11619 8353 c-47 -14 -119 -70 -119 -94 0 -8 -4 -19 -10 -25 -26 -26
-10 -146 50 -374 16 -58 68 -293 72 -320 l3 -24 -320 -2 c-373 -2 -382 -3
-444 -91 -39 -56 -43 -111 -15 -217 9 -34 17 -68 19 -76 2 -8 17 -73 35 -145
18 -71 33 -137 35 -145 2 -8 12 -51 24 -96 11 -45 22 -90 24 -100 18 -99 81
-184 149 -202 18 -5 193 -7 389 -6 l357 3 22 -87 c23 -93 29 -116 35 -147 2
-11 6 -31 9 -45 3 -14 12 -52 20 -86 8 -34 17 -72 20 -85 2 -13 7 -31 10 -39
3 -8 8 -26 10 -40 3 -14 7 -36 10 -50 3 -14 9 -38 12 -55 10 -47 39 -97 73
-128 17 -15 31 -24 31 -21 0 4 7 0 17 -7 13 -11 74 -14 312 -12 163 1 322 3
354 5 32 2 60 1 63 -3 2 -3 28 0 59 9 50 14 93 45 132 95 11 13 30 92 26 107
-1 3 -4 23 -7 45 -4 22 -11 56 -16 75 -5 19 -12 49 -14 65 -3 17 -8 39 -10 50
-3 11 -19 83 -35 160 -17 77 -35 152 -40 167 -5 16 -6 30 -2 33 4 2 138 5 297
7 323 2 349 7 408 65 63 64 70 114 37 268 -12 55 -24 111 -26 125 -3 14 -7 36
-10 50 -3 14 -10 45 -15 70 -12 53 -16 71 -36 170 -9 41 -18 84 -20 95 -2 11
-7 33 -9 49 -8 40 -39 98 -67 121 -59 51 -50 50 -435 50 -199 0 -364 3 -366 5
-2 3 -12 41 -21 85 -10 44 -20 89 -22 100 -3 11 -7 31 -10 45 -3 14 -21 95
-40 180 -19 85 -36 164 -38 175 -30 151 -53 190 -136 234 -37 19 -28 19 -611
24 -115 1 -192 -2 -220 -10z m582 -402 c4 0 12 -29 19 -63 15 -77 12 -64 50
-232 17 -76 33 -146 35 -155 2 -9 8 -36 14 -61 5 -25 12 -56 15 -70 3 -14 9
-41 14 -60 5 -19 9 -38 10 -43 5 -23 34 -75 54 -97 49 -52 65 -54 444 -55 193
-1 356 -5 362 -9 7 -4 12 -19 12 -34 0 -15 4 -43 10 -62 10 -39 19 -79 26
-126 l5 -31 -103 -1 c-524 -3 -511 -3 -547 -22 -51 -26 -81 -57 -103 -106 -23
-53 -19 -112 17 -254 8 -30 16 -66 19 -80 2 -14 12 -56 21 -95 9 -38 18 -81
20 -95 2 -14 6 -34 9 -45 21 -91 24 -110 21 -113 -2 -2 -58 -4 -126 -5 l-122
-2 -24 105 c-13 58 -28 121 -33 140 -8 31 -42 176 -56 240 -3 14 -10 43 -15
65 -33 150 -61 200 -132 237 -40 20 -53 21 -307 19 -146 -1 -309 -3 -363 -4
-57 -1 -102 2 -106 8 -7 9 -42 150 -42 167 0 4 -6 26 -15 49 -8 23 -13 44 -11
45 2 2 144 4 316 4 262 1 320 4 355 17 46 18 86 54 108 98 17 32 22 149 8 175
-4 8 -11 29 -14 45 -3 17 -10 50 -16 75 -6 25 -12 56 -15 70 -3 14 -8 36 -12
50 -13 50 -19 79 -32 140 -5 25 -17 72 -25 105 -9 32 -16 62 -16 65 0 5 245 6
271 1z"/>
</g>
</svg>
