<svg class="logo" viewBox="0 0 100 30" fill="none" xmlns="http://www.w3.org/2000/svg"><path d="M56.2355 22.152h-.2041c-.1525.2326-.349.4394-.5971.6151-.2197.1654-.486.3076-.8013.4317-.3153.124-.7056.1861-1.1709.1861-.4936 0-.9718-.1163-1.4396-.349-.4679-.2326-.8814-.5557-1.2433-.9667-.3618-.4109-.6565-.8968-.884-1.4577-.2248-.5609-.3386-1.1787-.3386-1.8481 0-.672.1138-1.2872.3386-1.8481.2249-.5609.5196-1.0468.884-1.4578.3619-.4109.778-.7314 1.2433-.9666.4652-.2327.946-.349 1.4396-.349.4653 0 .8608.0646 1.1813.1965.3231.1292.5867.2714.7909.4213.2455.1783.4446.3825.5971.6151h.2041V9.0061h2.2591v13.973h-2.2591v-.8271zm0-3.7996c0-.2869-.0594-.5609-.1757-.8219-.1163-.2611-.274-.4885-.473-.6875-.199-.1991-.4291-.3567-.6876-.473-.261-.1164-.535-.1758-.8219-.1758-.2869 0-.5609.062-.8219.1861-.2611.1241-.4911.2972-.6876.5247-.199.2249-.3567.4962-.473.8116-.1163.3153-.1757.6643-.1757 1.0468 0 .3825.0568.7341.1757 1.0468.1163.3153.274.5867.473.8116.1991.2249.4291.4006.6876.5247.261.1241.535.1861.8219.1861.2869 0 .5609-.0594.8219-.1758.2611-.1163.4886-.2739.6876-.473.199-.199.3567-.429.473-.6875.1163-.2611.1757-.535.1757-.8219v-.822zM63.6335 10.3363c0 .3567-.1344.6669-.4006.9357-.2662.2662-.579.4006-.9357.4006s-.6668-.1344-.9356-.4006c-.2663-.2663-.4007-.579-.4007-.9357 0-.35669.1344-.66685.4007-.93566.2662-.26623.5789-.40064.9356-.40064s.6669.13441.9357.40064c.2688.26881.4006.58155.4006.93566zm-2.4658 4.2131h2.259v8.4236h-2.259v-8.4236zM68.4608 21.4117c-.0827.0284-.1499.062-.2042.1034-.0542.0543-.1034.1137-.1447.1757-.0414.0621-.062.1474-.062.2559 0 .1086.0206.1965.062.2559.0413.0595.0879.1137.1447.1551.0543.0414.1241.075.2042.1034.1241-.0129.2456-.0336.3696-.0621.1241-.0129.2508-.0232.38-.031.1292-.0077.2559-.0103.3799-.0103.7263 0 1.3674.0956 1.9205.2869.5557.1913 1.0261.4446 1.4164.7599.3903.3153.685.6746.884 1.0778.199.4032.2972.8246.2972 1.264s-.0982.8607-.2972 1.2639-.4937.7625-.884 1.0778c-.3903.3153-.8633.5686-1.4164.7599-.5557.1913-1.1942.2869-1.9205.2869-.7133 0-1.3492-.0956-1.9101-.2869-.5608-.1913-1.0364-.4446-1.4267-.7599-.3903-.3153-.685-.6746-.884-1.0778-.199-.4032-.2972-.8245-.2972-1.2639 0-.3826.0775-.7289.2352-1.0365.1576-.3076.3386-.5661.5454-.7703.2197-.2455.473-.4652.7599-.6565v-.2042c-.1525-.0827-.2869-.1861-.411-.3076-.1086-.1085-.2042-.2403-.2869-.3902-.0827-.15-.1241-.3283-.1241-.5351 0-.2068.0414-.3825.1241-.535.0827-.1499.1783-.2818.2869-.3903.1241-.1241.261-.2249.411-.3076v-.2042c-.1913-.1499-.3619-.3412-.5144-.5764-.137-.1912-.2559-.4342-.3593-.7289-.1034-.2946-.1551-.6461-.1551-1.0571 0-.4653.0983-.9072.2973-1.326.199-.4187.473-.7883.8219-1.1088.349-.3205.7703-.579 1.2639-.7703.4937-.1912 1.0339-.2869 1.6232-.2869h4.6241v2.0549h-1.1295v.2042c.0956.124.1861.261.2662.4109.0672.137.1267.2921.1758.4627.0465.1706.0723.3593.0723.5661 0 .4109-.1008.8116-.2972 1.2019-.199.3903-.473.7392-.822 1.0468-.3489.3075-.7702.5583-1.2639.7495-.4936.1913-1.0339.2869-1.6232.2869-.124 0-.2533-.0077-.3903-.0206-.137-.013-.261-.0285-.3696-.0414-.124-.0155-.2481-.0362-.3722-.0646zm3.2878 4.3371c0-.3153-.1784-.6151-.5351-.9046-.3566-.2869-.8969-.4317-1.6232-.4317s-1.2665.1448-1.6232.4317c-.3566.2869-.535.5893-.535.9046 0 .3154.1784.6152.535.9047.3567.2869.8969.4316 1.6232.4316s1.2666-.1447 1.6232-.4316c.3567-.2895.5351-.5919.5351-.9047zm-.5118-7.7076c0-.3567-.1577-.6849-.473-.9873-.3153-.3025-.7056-.4524-1.1709-.4524-.4652 0-.8555.1499-1.1708.4524-.3154.3024-.473.6306-.473.9873 0 .3567.1576.685.473.9874.3153.3024.7056.4523 1.1708.4523.4653 0 .8556-.1499 1.1709-.4523s.473-.6307.473-.9874zM78.3249 10.3363c0 .3567-.1344.6669-.4006.9357-.2662.2662-.579.4006-.9357.4006s-.6668-.1344-.9356-.4006c-.2663-.2663-.4007-.579-.4007-.9357 0-.35669.1344-.66685.4007-.93566.2662-.26623.5789-.40064.9356-.40064s.6669.13441.9357.40064c.2688.26881.4006.58155.4006.93566zm-2.4658 4.2131h2.2591v8.4236h-2.2591v-8.4236zM79.7649 14.5495h1.3363v-3.081h2.2591v3.081h2.1582v2.0548h-2.1582v3.3912c0 .4109.1085.7366.3282.977.2197.2404.486.3593.8013.3593.1241 0 .243-.0207.3593-.0621.1163-.0413.2145-.0878.2972-.1447.0956-.0543.1835-.1241.2662-.2042l.7186 1.9515c-.1499.0956-.3154.1861-.4937.2662-.1783.0672-.3774.1266-.5971.1757-.2197.0492-.473.0724-.7599.0724-.4394 0-.8503-.0853-1.2329-.2559-.3851-.1706-.7185-.4083-1.008-.7082-.2869-.2998-.517-.6565-.6876-1.0675-.1705-.4109-.2558-.8633-.2558-1.3569v-3.3912h-1.3363v-2.0574h.0051zM91.1649 14.1384c.5609 0 1.0882.1034 1.5819.3076.4936.2042.9175.4834 1.2742.8323.3567.3489.6359.7651.8426 1.2432.2042.4808.3076.9874.3076 1.5198v4.9317h-2.259v-.822h-.2068c-.1499.2327-.336.4394-.5557.6152-.2042.1654-.4549.3076-.7496.4317-.2946.124-.6461.186-1.0571.186-.4653 0-.8866-.0723-1.2639-.2145-.3774-.1447-.6979-.3463-.9667-.6074-.2662-.261-.4756-.566-.6281-.915-.1499-.3489-.2275-.7289-.2275-1.1398 0-.8504.3128-1.5405.9357-2.0756.6229-.535 1.4759-.8012 2.5589-.8012.3153 0 .6022.0207.8633.062.261.0414.4859.0905.6772.1448.2326.0542.4368.124.6177.2041 0-.5195-.1758-.9589-.5247-1.3156-.3489-.3567-.7573-.535-1.2226-.535-.261 0-.4962.0388-.7082.1137-.2119.075-.3928.1551-.5453.2352-.1784.1086-.3412.2327-.4937.3696l-1.3363-1.5404c.2197-.2327.4807-.4394.7806-.6152.2739-.1654.5944-.3076.9666-.4317.3748-.1214.8194-.1835 1.3389-.1835zm1.7473 5.6502c-.1784-.0129-.3851-.0336-.6178-.062-.2042-.0129-.4342-.0233-.6875-.031-.2533-.0078-.5376-.0104-.853-.0104-.3566 0-.6332.0853-.8322.2559-.199.1706-.2973.3593-.2973.5661 0 .2067.106.3928.318.566.2119.1706.5505.2559 1.0157.2559.3826 0 .7031-.0775.9564-.2352.2533-.1577.4549-.3386.6074-.5454.1654-.2171.2947-.473.3903-.7599zM97.7412 9.00269H100V22.9756h-2.2588V9.00269zM51.8858 5.24183l-.0284-3.90551c0-.11373.0982-.22746.2249-.22746l.9046-.00775c.6152-.00517 1.0572.54279 1.0598 1.12952.0026.31792-.137.64359-.3541.86329.4032.21712.6461.61775.6513 1.09075.0052.71338-.5919 1.28202-1.2898 1.28719l-.933.00776c-.1267.00258-.2353-.13182-.2353-.23779zm1.1037-3.69356l-.6772.00517.0104 1.37765.672-.00517c.367-.00259.6048-.33601.6022-.69012-.0051-.35152-.2481-.69012-.6074-.68753zm.0491 1.82997l-.7133.00518.0129 1.64646.7134-.00518c.4523-.00258.8452-.36703.8426-.83227-.0052-.46008-.4032-.81936-.8556-.81419zM57.7197 5.2211c0-.06462 1.189-3.753 1.2846-4.05024.0285-.10598.1267-.15509.2171-.15768.0931 0 .1836.04911.2198.15509.0206.09822.1731.52211.3541 1.07007.4032 1.17604.9873 2.91039.9899 2.9595 0 .11372-.1111.22745-.2249.22745-.093 0-.1912-.06203-.2197-.16025l-.4756-1.42935-1.2432.00776c-.1525.49626-.3102.94859-.4627 1.4371-.0336.09822-.1189.16284-.2119.16284-.1267.00517-.2275-.10856-.2275-.22229zm1.0468-1.8274l.9383-.00775-.4756-1.44486-.4627 1.45261zM66.1798 3.78398c.2869.51435.6953 1.27943.6953 1.3518 0 .12665-.0982.22746-.2249.22746-.0697 0-.1628-.05428-.199-.1189-.2998-.55572-.5867-1.09075-.8865-1.65422-.0982.00776-.212.00776-.318.01034-.0775 0-.155-.00517-.2248-.00517h-.1267l.0104 1.56117c0 .12665-.0983.22745-.2249.22745-.1267 0-.2275-.09821-.2275-.22486l-.0284-3.87708c0-.12665.0982-.22745.2249-.22745l.8555-.00517c.7056-.00517 1.282.55571 1.2872 1.26134.0052.54279-.2688.99769-.7677 1.17087l.1551.30242zm.1654-1.47071c-.0025-.46008-.3877-.81677-.84-.81418l-.6281.00517.013 1.63095.628-.00517c.4524 0 .8297-.36444.8271-.81677zM72.1476 3.74003c.2869.51436.6953 1.27944.6953 1.35181 0 .12665-.0982.22745-.2249.22745-.0698 0-.1628-.05427-.199-.11889-.2998-.55571-.5867-1.09076-.8866-1.65422-.0982.00775-.2119.00775-.3179.01034-.0775 0-.1551-.00517-.2249-.00517h-.1266l.0103 1.56117c0 .12665-.0982.22745-.2248.22745-.1267 0-.2275-.09822-.2275-.22487l-.0284-3.87707c0-.12665.0982-.22746.2248-.22746l.8556-.00516c.7056-.00517 1.282.55571 1.2872 1.26134.0051.54279-.2688.9977-.7677 1.17087l.1551.30241zm.1654-1.46812c-.0026-.46007-.3877-.81676-.84-.81418l-.6281.00517.0129 1.63095.6281-.00516c.4523-.00259.8297-.36445.8271-.81678zM76.3662 5.08926c0-.06462 1.189-3.753 1.2846-4.05024.0284-.105974.1267-.155088.2171-.157672.0931 0 .1835.049111.2197.155082.0207.09822.1732.52212.3541 1.07008.4033 1.17604.9874 2.91038.99 2.95949 0 .11373-.1112.22746-.2249.22746-.093 0-.1913-.06204-.2197-.16025l-.4756-1.42935-1.2432.00775c-.1525.49627-.3102.94859-.4627 1.4371-.0336.09822-.1189.16284-.2093.16284-.1293.00259-.2301-.11115-.2301-.22229zm1.0468-1.82997l.9383-.00776-.4756-1.44485-.4627 1.45261zM83.7036 5.09962c-.6384-.41097-.8917-1.3363-.8969-2.03417-.0051-.71338.243-1.62579.8685-2.06261.1835-.113724.3877-.193844.6203-.196429.4523-.002585.8581.341179 1.0985.684949.0491.06979.1991.33084.2016.42131 0 .12665-.1111.22745-.2248.22745-.0983 0-.1784-.06203-.212-.13182-.1732-.35927-.4446-.75215-.8607-.74956-.1266 0-.2533.05169-.367.12923-.4989.32826-.6772 1.09334-.6721 1.67231.0052.5583.2275 1.3182.6979 1.65422.106.06978.2481.11889.367.1163.4162-.00258.6824-.40062.8478-.76248.0336-.06979.1112-.12665.212-.12924.1137 0 .2274.10339.2274.21712 0 .09822-.1447.35411-.1938.43165-.2378.3541-.6307.69012-1.0908.6927-.2326.00517-.4368-.06204-.6229-.18093zM89.002 4.99625c0-.06462 1.1889-3.75301 1.2845-4.050252.0285-.105973.1267-.155079.2172-.157663.093 0 .1835.049111.2197.155084.0206.098221.1731.522111.3541 1.070071.4032 1.17604.9873 2.91039.9899 2.9595 0 .11372-.1111.22745-.2248.22745-.0931 0-.1913-.06203-.2197-.16025l-.4756-1.42935-1.2433.00776c-.1525.49626-.3101.94859-.4626 1.4371-.0336.09822-.1189.16283-.212.16283-.1292.00517-.2274-.10855-.2274-.22228zM90.2581.00257935c.2326-.00258471.3334.13182065.4317.25847165.0439.049109.0853.105974.1008.105974-.0078 0 0-.118895.0051-.175759V.178338C90.7957.0801189 90.8655 0 90.9999 0c.106 0 .212.0749551.212.168005.0026.204192-.0595.545373-.4342.547958-.2404.002585-.3464-.144744-.4395-.266225-.0439-.056864-.0775-.098221-.0853-.098221-.0129 0-.0206.142157-.0258.191267-.0129.093049-.0905.155087-.2119.157671-.1138 0-.2042-.082709-.2068-.160251 0-.217116.0956-.53503994.4497-.53762465zM90.0462 3.16885l.9382-.00775-.4756-1.44485-.4626 1.4526zM97.5239.909733c.6384.418727.8917 1.336297.8969 2.041917.0052.70563-.243 1.62579-.8685 2.05486-.1835.12148-.3877.19384-.6203.19643-.2326.00258-.4394-.0672-.6307-.1861-.6306-.41873-.8865-1.3363-.8891-2.04192-.0052-.70563.2275-1.62578.8607-2.054846.1887-.121482.3955-.193856.6281-.196441.2274 0 .4394.067203.6229.1861zm-.2275 3.716817c.4989-.32826.6772-1.0985.6721-1.67231-.0052-.5583-.2275-1.3182-.6979-1.66197-.106-.06203-.2481-.1189-.367-.11631-.1189 0-.2688.05945-.3722.12148-.4627.34894-.6772 1.11401-.6721 1.67231.0052.57122.2017 1.34146.6979 1.66197.1137.08271.2404.1189.3748.11631.1344 0 .2533-.03618.3644-.12148z" fill="#000"/><path d="M44.9921 20.9672H.558299C.250718 20.9672 0 20.7165 0 20.4089c0-.3076.250718-.5583.558299-.5583H44.9921c.3076 0 .5583.2507.5583.5583 0 .3102-.2481.5583-.5583.5583z" fill="#3060CF"/><path d="M25.03 20.9669c-.2688 0-.504-.1939-.5505-.4678l-1.7292-10.4113-6.7021-6.11798-6.70479 6.12058-1.72917 10.4112c-.04911.305-.33602.5118-.64102.4601-.30499-.0517-.50918-.3386-.46007-.641L8.27334 9.7208c.02067-.12406.08271-.2352.17317-.3205l7.13119-6.51089c.1034-.14733.2714-.2378.4575-.2378.1706 0 .3335.07754.4394.2042l7.1726 6.54191c.0931.08529.1551.19643.1732.3205l1.7602 10.59988c.0517.305-.1551.5919-.4601.641-.0284.0052-.0594.0078-.0905.0078z" fill="#3060CF"/><path d="M2.87905 20.9671c-.09305 0-.1861-.0233-.27139-.0724-.26881-.1499-.36445-.4911-.21454-.7599L8.33796 9.5349c.1525-.26881.4911-.36444.75991-.21453s.36444.4911.21453.75993L3.36756 20.6802c-.10339.1861-.29466.2869-.48851.2869zM29.3206 20.9672c-.1964 0-.3851-.1034-.4885-.2843L22.8873 10.083c-.15-.26885-.0543-.61003.2145-.75995.2688-.14991.61-.05427.7599.21454l5.9448 10.59991c.15.2688.0543.61-.2145.7599-.0853.0465-.1783.0698-.2714.0698zM41.0819 20.9672c-.2533 0-.4833-.1758-.5428-.4317L38.0319 9.69266l-6.9916-5.92933h-14.981c-.3076 0-.5583-.25072-.5583-.5583s.2507-.5583.5583-.5583h15.1852c.1318 0 .261.04653.3618.13182l7.2889 6.18263c.0905.07754.1551.18352.1835.29983l2.5486 11.02379c.0698.2998-.1189.5997-.4188.6695-.0439.0103-.0853.0129-.1266.0129z" fill="#3060CF"/><path d="M43.4594 20.9671c-.2145 0-.4161-.1241-.5092-.3308L38.0238 9.61245c-.1267-.28173 0-.61257.2817-.73664.2817-.12665.6126 0 .7366.28174l4.9265 11.02375c.1267.2818 0 .6126-.2817.7367-.0724.0336-.1499.0491-.2275.0491zM36.6975 10.3671H27.863c-.3076 0-.5583-.2507-.5583-.55831 0-.30758.2507-.5583.5583-.5583h8.8345c.3076 0 .5583.25072.5583.5583 0 .30761-.2507.55831-.5583.55831zM21.5794 20.9671c-.168 0-.336-.075-.4445-.2197-.5377-.7082-4.4871-5.9785-5.9087-9.6513-.8788 2.8276-2.6338 7.8291-4.5543 9.7133-.2197.2171-.5738.212-.7883-.0077-.21712-.2197-.21195-.5738.00775-.7884C12.3598 17.5889 14.7118 8.88613 14.7377 8.79825c.0724-.2714.336-.44715.6126-.40838.2765.03618.4859.27397.4859.55312 0 2.43481 4.469 8.86041 6.1904 11.12981.1861.2455.137.597-.1086.7831-.1008.075-.2197.1112-.3386.1112z" fill="#3060CF"/><path d="M21.2331 20.4993c-.0465 0-.0904-.0051-.137-.0181-.2998-.0749-.4807-.3799-.4058-.6771l.6488-2.5718c-2.6519-1.2278-6.1361-7.28376-6.5497-8.01524-.1525-.26881-.0568-.60999.212-.7599.2688-.1525.6074-.05687.7599.21194 1.5818 2.7967 4.7016 7.3483 6.348 7.6559.1525.0285.2844.1189.3671.2482.0827.1292.1085.2869.0698.4368l-.7755 3.0706c-.062.2507-.2894.4187-.5376.4187zM33.5235 19.0311c-.2584 0-.4859-.1783-.5428-.4316l-.4213-1.8119-1.8997.0181h-.0052c-.2559 0-.4808-.1758-.5428-.4239l-.4626-1.8765c-.0414-.1654-.0026-.3412.1033-.4782.106-.1344.2663-.2145.4394-.2145l1.6723-.0026-.3877-1.6697c-.0387-.1655 0-.3412.1086-.4756.106-.1344.274-.2094.4394-.2094l1.9179.013c.261.0025.4833.1835.5402.4368l.4213 1.8971 1.8506-.0025c.2637 0 .4911.1861.5454.4445l.3851 1.8326c.0336.1628-.0077.3334-.1111.4652-.106.1293-.2637.2068-.4291.2094l-1.5818.0155.3463 1.5586c.0362.1628-.0026.336-.1059.4678-.1034.1318-.2611.2094-.4291.212l-1.8403.0336c-.0026-.0078-.0078-.0078-.0104-.0078zm-.5221-3.3627c.2585 0 .4859.1784.5428.4317l.4213 1.8067.7056-.013-.3489-1.5637c-.0362-.1654.0026-.336.1086-.4678.1059-.1319.2636-.2094.4316-.212l1.5896-.0155-.1499-.7211-1.8455.0026c-.261 0-.4885-.181-.5454-.4369l-.4239-1.9023-.765-.0052.3877 1.6646c.0387.1654 0 .3386-.106.473-.106.1344-.2662.2119-.4368.2119l-1.6646.0026.1861.7573 1.905-.0181c.0026.0052.0051.0052.0077.0052z" fill="#3060CF"/></svg>